<svg width="23" height="24" viewBox="0 0 23 24" fill="none" xmlns="http://www.w3.org/2000/svg">
<path d="M1.5 24H21C21.3978 24 21.7794 23.842 22.0607 23.5607C22.342 23.2794 22.5 22.8978 22.5 22.5V13.5C22.5 13.1022 22.342 12.7206 22.0607 12.4393C21.7794 12.158 21.3978 12 21 12H16.5C16.1022 12 15.7206 12.158 15.4393 12.4393C15.158 12.7206 15 13.1022 15 13.5V1.5C15 1.10218 14.842 0.720644 14.5607 0.43934C14.2794 0.158035 13.8978 0 13.5 0L9 0C8.60218 0 8.22064 0.158035 7.93934 0.43934C7.65804 0.720644 7.5 1.10218 7.5 1.5V7.5C7.5 7.10218 7.34196 6.72064 7.06066 6.43934C6.77936 6.15804 6.39782 6 6 6H1.5C1.10218 6 0.720644 6.15804 0.43934 6.43934C0.158035 6.72064 0 7.10218 0 7.5L0 22.5C0 22.8978 0.158035 23.2794 0.43934 23.5607C0.720644 23.842 1.10218 24 1.5 24ZM1.5 22.5V19.5H3V22.5H1.5ZM3 13.5V15H1.5V13.5H3ZM1.5 12V10.5H3V12H1.5ZM3 16.5V18H1.5V16.5H3ZM4.5 15V13.5H6V15H4.5ZM6 16.5V18H4.5V16.5H6ZM4.5 12V10.5H6V12H4.5ZM4.5 22.5V19.5H6V22.5H4.5ZM6 9H4.5V7.5H6V9ZM3 9H1.5V7.5H3V9ZM12 22.5V19.5H13.5V22.5H12ZM10.5 7.5V9H9V7.5H10.5ZM9 6V4.5H10.5V6H9ZM10.5 10.5V12H9V10.5H10.5ZM10.5 13.5V15H9V13.5H10.5ZM10.5 16.5V18H9V16.5H10.5ZM12 15V13.5H13.5V15H12ZM13.5 16.5V18H12V16.5H13.5ZM12 12V10.5H13.5V12H12ZM12 9V7.5H13.5V9H12ZM12 6V4.5H13.5V6H12ZM13.5 3H12V1.5H13.5V3ZM10.5 3H9V1.5H10.5V3ZM9 19.5H10.5V22.5H9V19.5ZM18 18H16.5V16.5H18V18ZM19.5 16.5H21V18H19.5V16.5ZM19.5 19.5H21V22.5H19.5V19.5ZM21 15H19.5V13.5H21V15ZM18 15H16.5V13.5H18V15ZM16.5 19.5H18V22.5H16.5V19.5Z" fill="#444658"/>
</svg>
