<svg width="137" height="137" viewBox="0 0 137 137" fill="none" xmlns="http://www.w3.org/2000/svg">
<g clip-path="url(#clip0_72_2219)">
<circle cx="68.5" cy="68.5" r="64" stroke="#EEEEEE" stroke-width="9"/>
<path d="M68.6136 4.53502C68.618 2.03047 70.6544 -0.0119005 73.1531 0.158189C86.3758 1.05822 99.0899 5.77924 109.726 13.7945C121.572 22.722 130.201 35.2537 134.314 49.5057C138.427 63.7576 137.803 78.9597 132.535 92.8265C127.806 105.276 119.562 116.046 108.852 123.853C106.829 125.328 104.017 124.685 102.679 122.568C101.341 120.451 101.984 117.664 103.993 116.168C113.049 109.425 120.025 100.219 124.057 89.6055C128.627 77.5748 129.169 64.3856 125.6 52.0206C122.031 39.6557 114.545 28.7832 104.268 21.0378C95.2003 14.2049 84.3926 10.1314 73.1359 9.25082C70.639 9.05549 68.6091 7.03956 68.6136 4.53502Z" fill="#F59E0B"/>
<path d="M53.4799 72.8409V71.1648L58.4174 63.3636H59.8151V65.75H58.9629L55.639 71.017V71.108H62.531V72.8409H53.4799ZM59.031 75V72.3295L59.0538 71.5795V63.3636H61.0424V75H59.031ZM68.9231 63.3636V75H66.8151V65.4148H66.7469L64.0254 67.1534V65.2216L66.9174 63.3636H68.9231ZM78.0992 72.8182V72.2045C78.0992 71.7538 78.1939 71.339 78.3833 70.9602C78.5765 70.5814 78.8568 70.2765 79.2242 70.0455C79.5916 69.8144 80.0367 69.6989 80.5594 69.6989C81.0973 69.6989 81.5481 69.8144 81.9117 70.0455C82.2754 70.2727 82.55 70.5758 82.7356 70.9545C82.925 71.3333 83.0197 71.75 83.0197 72.2045V72.8182C83.0197 73.2689 82.925 73.6837 82.7356 74.0625C82.5462 74.4413 82.2678 74.7462 81.9004 74.9773C81.5367 75.2083 81.0897 75.3239 80.5594 75.3239C80.0291 75.3239 79.5803 75.2083 79.2129 74.9773C78.8454 74.7462 78.567 74.4413 78.3776 74.0625C78.192 73.6837 78.0992 73.2689 78.0992 72.8182ZM79.5822 72.2045V72.8182C79.5822 73.1174 79.6541 73.392 79.7981 73.642C79.942 73.892 80.1958 74.017 80.5594 74.017C80.9269 74.017 81.1788 73.8939 81.3151 73.6477C81.4553 73.3977 81.5254 73.1212 81.5254 72.8182V72.2045C81.5254 71.9015 81.4591 71.625 81.3265 71.375C81.1939 71.1212 80.9382 70.9943 80.5594 70.9943C80.2034 70.9943 79.9515 71.1212 79.8038 71.375C79.656 71.625 79.5822 71.9015 79.5822 72.2045ZM72.1844 66.1591V65.5455C72.1844 65.0909 72.281 64.6742 72.4742 64.2955C72.6674 63.9167 72.9477 63.6136 73.3151 63.3864C73.6825 63.1553 74.1276 63.0398 74.6504 63.0398C75.1844 63.0398 75.6333 63.1553 75.9969 63.3864C76.3644 63.6136 76.6409 63.9167 76.8265 64.2955C77.0121 64.6742 77.1049 65.0909 77.1049 65.5455V66.1591C77.1049 66.6136 77.0102 67.0303 76.8208 67.4091C76.6352 67.7841 76.3587 68.0852 75.9913 68.3125C75.6238 68.5398 75.1769 68.6534 74.6504 68.6534C74.1163 68.6534 73.6655 68.5398 73.2981 68.3125C72.9344 68.0852 72.6579 67.7822 72.4685 67.4034C72.2791 67.0246 72.1844 66.6098 72.1844 66.1591ZM73.6788 65.5455V66.1591C73.6788 66.4621 73.7488 66.7386 73.889 66.9886C74.0329 67.2348 74.2867 67.358 74.6504 67.358C75.014 67.358 75.264 67.2348 75.4004 66.9886C75.5405 66.7386 75.6106 66.4621 75.6106 66.1591V65.5455C75.6106 65.2424 75.5443 64.9659 75.4117 64.7159C75.2791 64.4621 75.0254 64.3352 74.6504 64.3352C74.2905 64.3352 74.0386 64.4621 73.8947 64.7159C73.7507 64.9697 73.6788 65.2462 73.6788 65.5455ZM72.8322 75L80.8322 63.3636H82.2526L74.2526 75H72.8322Z" fill="#444658"/>
</g>
<defs>
<clipPath id="clip0_72_2219">
<rect width="137" height="137" fill="white"/>
</clipPath>
</defs>
</svg>
