<svg width="40.000000" height="40.000000" viewBox="0 0 40 40" fill="none" xmlns="http://www.w3.org/2000/svg" xmlns:xlink="http://www.w3.org/1999/xlink">
	<desc>
			Created with Pixso.
	</desc>
	<defs/>
	<rect id="Frame 40700" rx="19.500000" width="39.000000" height="39.000000" transform="translate(0.500000 0.500000)" fill="#444658" fill-opacity="1.000000"/>
	<path id="Vector" d="M28.83 23.83C27.9 23.44 26.81 23.77 26.23 24.62L23.05 29.51C22.94 29.68 22.65 29.68 22.59 29.45L21.26 25.18C21.21 25.01 21.26 24.79 21.38 24.67L22.36 23.72C22.59 23.55 22.42 23.16 22.13 23.16L18.66 23.16C18.38 23.16 18.2 23.49 18.43 23.72L19.42 24.67C19.53 24.79 19.59 25.01 19.53 25.18L18.2 29.45C18.14 29.68 17.86 29.68 17.74 29.51L14.56 24.62C13.99 23.77 12.95 23.44 11.97 23.83C6.07 26.19 4 28.27 4 34.34C4 35.07 4.57 35.63 5.32 35.63L35.47 35.63C36.22 35.63 36.8 35.07 36.8 34.34C36.8 28.27 28.83 23.83 28.83 23.83ZM20.4 21.3C28.14 21.3 32.18 4.16 20.4 4C8.62 4.22 12.66 21.3 20.4 21.3Z" fill="#FFFFFF" fill-opacity="1.000000" fill-rule="nonzero"/>
</svg>
