<svg width="26.666748" height="24.000000" viewBox="0 0 26.6667 24" fill="none" xmlns="http://www.w3.org/2000/svg" xmlns:xlink="http://www.w3.org/1999/xlink">
	<desc>
			Created with Pixso.
	</desc>
	<defs>
		<clipPath id="clip12_656">
			<rect id="Laptop Mobile" rx="0.000000" width="25.666668" height="23.000000" transform="translate(0.500000 0.500000)" fill="white" fill-opacity="0"/>
		</clipPath>
	</defs>
	<rect id="Laptop Mobile" rx="0.000000" width="25.666668" height="23.000000" transform="translate(0.500000 0.500000)" fill="#FFFFFF" fill-opacity="0"/>
	<g clip-path="url(#clip12_656)">
		<path id="Vector" d="M23.73 8.03C24.43 8.03 25.1 8.31 25.6 8.81C26.09 9.3 26.37 9.97 26.37 10.67L26.37 21.23C26.37 21.94 26.09 22.61 25.6 23.1C25.1 23.6 24.43 23.87 23.73 23.87L18.45 23.87C17.75 23.87 17.08 23.6 16.58 23.1C16.09 22.61 15.81 21.94 15.81 21.23L15.81 10.67C15.81 9.97 16.09 9.3 16.58 8.81C17.08 8.31 17.75 8.03 18.45 8.03L23.73 8.03ZM13.17 10.67C13.17 9.28 13.73 7.93 14.72 6.94C15.71 5.95 17.05 5.4 18.45 5.39L23.73 5.39L23.73 2.75C23.73 2.05 23.45 1.38 22.96 0.89C22.46 0.39 21.79 0.11 21.09 0.11L5.25 0.11C4.55 0.11 3.88 0.39 3.38 0.89C2.89 1.38 2.61 2.05 2.61 2.75L2.61 13.31L13.17 13.31L13.17 10.67ZM2.61 18.59L13.17 18.59L13.17 15.95L-0.03 15.95C-0.03 16.66 0.25 17.33 0.74 17.82C1.24 18.32 1.91 18.59 2.61 18.59Z" fill="#444658" fill-opacity="1.000000" fill-rule="evenodd"/>
	</g>
</svg>
