<svg width="40" height="40" viewBox="0 0 40 40" fill="none" xmlns="http://www.w3.org/2000/svg">
<rect width="40" height="40" rx="20" fill="#444658"/>
<path d="M33.25 31.875C33.25 32.6313 32.6313 33.25 31.875 33.25H7.125C6.36875 33.25 5.75 32.6313 5.75 31.875C5.75 31.1188 6.36875 30.5 7.125 30.5H31.875C32.6313 30.5 33.25 31.1188 33.25 31.875ZM11.25 27.75C12.0063 27.75 12.625 27.1313 12.625 26.375V7.125C12.625 6.36875 12.0063 5.75 11.25 5.75C10.4938 5.75 9.875 6.36875 9.875 7.125V26.375C9.875 27.1313 10.4938 27.75 11.25 27.75ZM22.25 27.75C23.0063 27.75 23.625 27.1313 23.625 26.375V20.875C23.625 20.1188 23.0063 19.5 22.25 19.5C21.4938 19.5 20.875 20.1188 20.875 20.875V26.375C20.875 27.1313 21.4938 27.75 22.25 27.75ZM16.75 27.75C17.5063 27.75 18.125 27.1313 18.125 26.375V15.375C18.125 14.6188 17.5063 14 16.75 14C15.9938 14 15.375 14.6188 15.375 15.375V26.375C15.375 27.1313 15.9938 27.75 16.75 27.75ZM27.75 27.75C28.5063 27.75 29.125 27.1313 29.125 26.375V9.875C29.125 9.11875 28.5063 8.5 27.75 8.5C26.9938 8.5 26.375 9.11875 26.375 9.875V26.375C26.375 27.1313 26.9938 27.75 27.75 27.75Z" fill="white"/>
</svg>
