<svg width="24.004639" height="24.000000" viewBox="0 0 24.0046 24" fill="none" xmlns="http://www.w3.org/2000/svg" xmlns:xlink="http://www.w3.org/1999/xlink">
	<desc>
			Created with Pixso.
	</desc>
	<defs/>
	<path id="Vector" d="M22.53 9.59L21.38 9.59C21.07 9.59 20.71 9.31 20.59 8.97C20.48 8.66 20.35 8.36 20.21 8.06C20.05 7.75 20.11 7.29 20.33 7.07L21.15 6.25C21.72 5.68 21.72 4.74 21.15 4.17L19.82 2.85C19.55 2.57 19.18 2.41 18.78 2.41C18.39 2.41 18.02 2.56 17.74 2.85L16.92 3.67C16.79 3.8 16.57 3.88 16.34 3.88C16.19 3.88 16.05 3.85 15.94 3.79C15.64 3.64 15.33 3.52 15.02 3.4C14.69 3.29 14.41 2.92 14.41 2.61L14.41 1.46C14.41 0.66 13.75 0 12.93 0L11.06 0C10.25 0 9.59 0.66 9.59 1.46L9.59 2.61C9.59 2.92 9.31 3.29 8.98 3.4C8.67 3.51 8.36 3.64 8.06 3.78C7.95 3.84 7.81 3.87 7.66 3.87C7.43 3.87 7.21 3.79 7.07 3.66L6.26 2.85C5.98 2.57 5.61 2.41 5.22 2.41C4.82 2.41 4.45 2.57 4.18 2.85L2.85 4.18C2.57 4.45 2.41 4.82 2.41 5.22C2.41 5.61 2.57 5.98 2.85 6.25L3.67 7.07C3.89 7.29 3.94 7.75 3.79 8.06C3.65 8.36 3.52 8.67 3.41 8.98C3.29 9.31 2.93 9.59 2.62 9.59L1.47 9.59C0.66 9.59 0 10.25 0 11.06L0 12.94C0 13.75 0.66 14.4 1.46 14.4L2.61 14.4C2.92 14.4 3.29 14.68 3.4 15.02C3.51 15.33 3.64 15.63 3.79 15.93C3.94 16.25 3.88 16.7 3.66 16.92L2.84 17.74C2.27 18.31 2.27 19.25 2.84 19.82L4.17 21.15C4.45 21.43 4.82 21.58 5.21 21.58C5.61 21.58 5.97 21.43 6.25 21.15L7.07 20.33C7.21 20.2 7.43 20.12 7.66 20.12C7.81 20.12 7.95 20.15 8.06 20.21C8.36 20.35 8.67 20.48 8.98 20.59C9.31 20.7 9.59 21.07 9.59 21.38L9.59 22.53C9.59 23.34 10.25 24 11.06 24L12.93 24C13.75 24 14.41 23.33 14.41 22.53L14.41 21.38C14.41 21.07 14.69 20.7 15.02 20.59C15.33 20.48 15.64 20.35 15.94 20.21C16.05 20.15 16.19 20.12 16.34 20.12C16.57 20.12 16.79 20.2 16.92 20.33L17.74 21.15C18.02 21.43 18.39 21.58 18.78 21.58C19.18 21.58 19.54 21.43 19.82 21.15L21.15 19.82C21.72 19.25 21.72 18.31 21.15 17.74L20.33 16.92C20.11 16.7 20.06 16.25 20.21 15.94C20.36 15.64 20.48 15.33 20.59 15.02C20.71 14.69 21.07 14.41 21.38 14.41L22.53 14.41C23.34 14.41 24 13.75 24 12.94L24 11.06C24 10.25 23.34 9.59 22.53 9.59ZM12 16.31C9.62 16.31 7.69 14.37 7.69 12C7.69 9.63 9.62 7.69 12 7.69C14.37 7.69 16.31 9.62 16.31 12C16.31 14.37 14.37 16.31 12 16.31Z" fill="#444658" fill-opacity="1.000000" fill-rule="nonzero"/>
</svg>
