<svg width="24.000000" height="24.000000" viewBox="0 0 24 24" fill="none" xmlns="http://www.w3.org/2000/svg" xmlns:xlink="http://www.w3.org/1999/xlink">
	<desc>
			Created with Pixso.
	</desc>
	<defs>
		<clipPath id="clip18_753">
			<rect id="Building" rx="0.000000" width="23.000000" height="23.000000" transform="translate(0.500000 0.500000)" fill="white" fill-opacity="0"/>
		</clipPath>
	</defs>
	<rect id="Building" rx="0.000000" width="23.000000" height="23.000000" transform="translate(0.500000 0.500000)" fill="#FFFFFF" fill-opacity="0"/>
	<g clip-path="url(#clip18_753)">
		<path id="Vector" d="M1.5 24L21 24C21.39 24 21.77 23.84 22.06 23.56C22.34 23.27 22.5 22.89 22.5 22.5L22.5 13.5C22.5 13.1 22.34 12.72 22.06 12.43C21.77 12.15 21.39 12 21 12L16.5 12C16.1 12 15.72 12.15 15.43 12.43C15.15 12.72 15 13.1 15 13.5L15 1.5C15 1.1 14.84 0.72 14.56 0.43C14.27 0.15 13.89 0 13.5 0L9 0C8.6 0 8.22 0.15 7.93 0.43C7.65 0.72 7.5 1.1 7.5 1.5L7.5 7.5C7.5 7.1 7.34 6.72 7.06 6.43C6.77 6.15 6.39 6 6 6L1.5 6C1.1 6 0.72 6.15 0.43 6.43C0.15 6.72 0 7.1 0 7.5L0 22.5C0 22.89 0.15 23.27 0.43 23.56C0.72 23.84 1.1 24 1.5 24ZM1.5 22.5L1.5 19.5L3 19.5L3 22.5L1.5 22.5ZM3 13.5L3 15L1.5 15L1.5 13.5L3 13.5ZM1.5 12L1.5 10.5L3 10.5L3 12L1.5 12ZM3 16.5L3 18L1.5 18L1.5 16.5L3 16.5ZM4.5 15L4.5 13.5L6 13.5L6 15L4.5 15ZM6 16.5L6 18L4.5 18L4.5 16.5L6 16.5ZM4.5 12L4.5 10.5L6 10.5L6 12L4.5 12ZM4.5 22.5L4.5 19.5L6 19.5L6 22.5L4.5 22.5ZM6 9L4.5 9L4.5 7.5L6 7.5L6 9ZM3 9L1.5 9L1.5 7.5L3 7.5L3 9ZM12 22.5L12 19.5L13.5 19.5L13.5 22.5L12 22.5ZM10.5 7.5L10.5 9L9 9L9 7.5L10.5 7.5ZM9 6L9 4.5L10.5 4.5L10.5 6L9 6ZM10.5 10.5L10.5 12L9 12L9 10.5L10.5 10.5ZM10.5 13.5L10.5 15L9 15L9 13.5L10.5 13.5ZM10.5 16.5L10.5 18L9 18L9 16.5L10.5 16.5ZM12 15L12 13.5L13.5 13.5L13.5 15L12 15ZM13.5 16.5L13.5 18L12 18L12 16.5L13.5 16.5ZM12 12L12 10.5L13.5 10.5L13.5 12L12 12ZM12 9L12 7.5L13.5 7.5L13.5 9L12 9ZM12 6L12 4.5L13.5 4.5L13.5 6L12 6ZM13.5 3L12 3L12 1.5L13.5 1.5L13.5 3ZM10.5 3L9 3L9 1.5L10.5 1.5L10.5 3ZM9 19.5L10.5 19.5L10.5 22.5L9 22.5L9 19.5ZM18 18L16.5 18L16.5 16.5L18 16.5L18 18ZM19.5 16.5L21 16.5L21 18L19.5 18L19.5 16.5ZM19.5 19.5L21 19.5L21 22.5L19.5 22.5L19.5 19.5ZM21 15L19.5 15L19.5 13.5L21 13.5L21 15ZM18 15L16.5 15L16.5 13.5L18 13.5L18 15ZM16.5 19.5L18 19.5L18 22.5L16.5 22.5L16.5 19.5Z" fill="#444658" fill-opacity="1.000000" fill-rule="evenodd"/>
	</g>
</svg>
