<svg width="60.000000" height="60.000000" viewBox="0 0 60 60" fill="none" xmlns="http://www.w3.org/2000/svg" xmlns:xlink="http://www.w3.org/1999/xlink">
	<desc>
			Created with Pixso.
	</desc>
	<defs/>
	<rect id="Frame 40700" rx="29.500000" width="59.000000" height="59.000000" transform="translate(0.500000 0.500000)" fill="#444658" fill-opacity="1.000000"/>
	<path id="Vector" d="M42.41 17.76C42.24 17.25 41.91 16.8 41.47 16.48C41.03 16.17 40.51 16 39.97 16L21.02 16C19.89 16 18.93 16.73 18.58 17.76L15 28.25L15 42.25C15 43.21 15.77 44 16.72 44L18.44 44C18.9 44 19.33 43.81 19.66 43.48C19.98 43.15 20.16 42.71 20.16 42.25L20.16 40.5L40.83 40.5L40.83 42.25C40.83 43.21 41.6 44 42.55 44L44.27 44C44.73 44 45.17 43.81 45.49 43.48C45.81 43.15 46 42.71 46 42.25L46 28.25L42.41 17.76ZM21.02 35.25C19.59 35.25 18.44 34.07 18.44 32.62C18.44 31.17 19.59 30 21.02 30C22.45 30 23.61 31.17 23.61 32.62C23.61 34.07 22.45 35.25 21.02 35.25ZM39.97 35.25C38.54 35.25 37.38 34.07 37.38 32.62C37.38 31.17 38.54 30 39.97 30C41.4 30 42.55 31.17 42.55 32.62C42.55 34.07 41.4 35.25 39.97 35.25ZM18.44 26.5L21.02 18.62L39.97 18.62L42.55 26.5L18.44 26.5Z" fill="#FFFFFF" fill-opacity="1.000000" fill-rule="nonzero"/>
</svg>
