<svg width="60" height="60" viewBox="0 0 60 60" fill="none" xmlns="http://www.w3.org/2000/svg">
<rect width="60" height="60" rx="30" fill="#444658"/>
<path d="M41.9375 40.8235C43.6468 40.8235 45.0158 39.4021 45.0158 37.6471L45.0312 20.1765C45.0312 18.4215 43.6468 17 41.9375 17H17.1875C15.4782 17 14.0938 18.4215 14.0938 20.1765V37.6471C14.0938 39.4021 15.4782 40.8235 17.1875 40.8235H11C11 42.5785 12.3845 44 14.0938 44H45.0312C46.7405 44 48.125 42.5785 48.125 40.8235H41.9375ZM17.1875 20.1765H41.9375V37.6471H17.1875V20.1765ZM29.5625 42.4118C28.7117 42.4118 28.0156 41.6971 28.0156 40.8235C28.0156 39.95 28.7117 39.2353 29.5625 39.2353C30.4133 39.2353 31.1094 39.95 31.1094 40.8235C31.1094 41.6971 30.4133 42.4118 29.5625 42.4118Z" fill="white"/>
</svg>
