<svg width="60" height="60" viewBox="0 0 60 60" fill="none" xmlns="http://www.w3.org/2000/svg">
<rect width="60" height="60" rx="30" fill="#444658"/>
<path d="M35.8366 47H23.997C21.793 47 20 45.1599 20 42.8981V17.1026C20 14.8408 21.793 13 23.997 13H35.8366C38.0406 13 39.8336 14.8408 39.8336 17.1026V22.1833C39.8336 22.3712 39.7589 22.5515 39.626 22.6843C39.4931 22.8172 39.3129 22.8919 39.125 22.8919C38.9371 22.8919 38.7569 22.8172 38.624 22.6843C38.4911 22.5515 38.4164 22.3712 38.4164 22.1833V17.1026C38.4164 15.6217 37.2596 14.4164 35.8366 14.4164H23.997C22.5739 14.4164 21.4164 15.6217 21.4164 17.1026V42.8981C21.4164 44.3789 22.5739 45.5836 23.997 45.5836H35.8366C37.2596 45.5836 38.4164 44.3789 38.4164 42.8981V27.9009C38.4164 27.713 38.4911 27.5328 38.624 27.3999C38.7569 27.267 38.9371 27.1923 39.125 27.1923C39.3129 27.1923 39.4931 27.267 39.626 27.3999C39.7589 27.5328 39.8336 27.713 39.8336 27.9009V42.8981C39.8336 45.1599 38.0406 47 35.8366 47Z" fill="white"/>
<path d="M29.9166 41.3333C30.0568 41.3332 30.1938 41.3746 30.3105 41.4524C30.4271 41.5302 30.518 41.6408 30.5717 41.7703C30.6254 41.8997 30.6396 42.0422 30.6123 42.1797C30.585 42.3172 30.5176 42.4435 30.4185 42.5427C30.3195 42.6418 30.1932 42.7094 30.0558 42.7368C29.9183 42.7642 29.7758 42.7502 29.6463 42.6966C29.5168 42.643 29.4061 42.5521 29.3282 42.4356C29.2503 42.3191 29.2087 42.1821 29.2087 42.0419C29.2091 41.8542 29.2838 41.6743 29.4164 41.5415C29.5491 41.4087 29.7289 41.3339 29.9166 41.3333ZM29.9166 39.9169C29.4963 39.9169 29.0855 40.0415 28.736 40.275C28.3866 40.5085 28.1142 40.8404 27.9534 41.2287C27.7925 41.617 27.7505 42.0442 27.8325 42.4565C27.9144 42.8687 28.1168 43.2473 28.414 43.5445C28.7112 43.8417 29.0898 44.0441 29.5021 44.1261C29.9143 44.208 30.3415 44.166 30.7298 44.0051C31.1181 43.8443 31.45 43.5719 31.6835 43.2225C31.917 42.873 32.0416 42.4622 32.0416 42.0419C32.0416 41.4783 31.8177 40.9378 31.4192 40.5393C31.0207 40.1408 30.4802 39.9169 29.9166 39.9169ZM32.0416 17.2498H27.7916C27.6075 17.2441 27.4329 17.1671 27.3047 17.0349C27.1765 16.9027 27.1048 16.7257 27.1048 16.5416C27.1048 16.3574 27.1765 16.1805 27.3047 16.0483C27.4329 15.9161 27.6075 15.839 27.7916 15.8333H32.0416C32.1365 15.8304 32.2309 15.8466 32.3194 15.8809C32.4078 15.9152 32.4885 15.9669 32.5566 16.0329C32.6247 16.099 32.6789 16.178 32.7158 16.2654C32.7528 16.3528 32.7719 16.4467 32.7719 16.5416C32.7719 16.6364 32.7528 16.7303 32.7158 16.8177C32.6789 16.9051 32.6247 16.9841 32.5566 17.0502C32.4885 17.1162 32.4078 17.1679 32.3194 17.2022C32.2309 17.2365 32.1365 17.2527 32.0416 17.2498ZM24.9587 15.8333C24.8186 15.8332 24.6815 15.8747 24.5649 15.9524C24.4483 16.0302 24.3574 16.1408 24.3036 16.2703C24.2499 16.3997 24.2358 16.5422 24.263 16.6797C24.2903 16.8172 24.3577 16.9435 24.4568 17.0427C24.5559 17.1418 24.6821 17.2094 24.8196 17.2368C24.9571 17.2642 25.0996 17.2502 25.2291 17.1966C25.3586 17.143 25.4693 17.0522 25.5472 16.9356C25.625 16.8191 25.6666 16.6821 25.6666 16.5419C25.6666 16.3541 25.5921 16.174 25.4593 16.0411C25.3266 15.9082 25.1465 15.8335 24.9587 15.8333Z" fill="white"/>
<path d="M39.1231 25.7504C39.5144 25.7504 39.8317 25.4331 39.8317 25.0418C39.8317 24.6505 39.5144 24.3333 39.1231 24.3333C38.7318 24.3333 38.4146 24.6505 38.4146 25.0418C38.4146 25.4331 38.7318 25.7504 39.1231 25.7504Z" fill="white"/>
<path d="M39.1231 24.3333C38.983 24.3333 38.846 24.3748 38.7295 24.4527C38.6129 24.5305 38.5221 24.6412 38.4685 24.7707C38.4149 24.9001 38.4008 25.0426 38.4282 25.18C38.4555 25.3175 38.523 25.4437 38.6221 25.5428C38.7212 25.6419 38.8474 25.7094 38.9849 25.7367C39.1223 25.7641 39.2648 25.7501 39.3943 25.6964C39.5237 25.6428 39.6344 25.552 39.7122 25.4355C39.7901 25.3189 39.8317 25.1819 39.8317 25.0418C39.8317 24.9488 39.8133 24.8566 39.7777 24.7707C39.7421 24.6847 39.6899 24.6066 39.6241 24.5408C39.5583 24.475 39.4802 24.4228 39.3943 24.3872C39.3083 24.3516 39.2162 24.3333 39.1231 24.3333Z" fill="white"/>
</svg>
