<svg width="24.213135" height="24.000000" viewBox="0 0 24.2131 24" fill="none" xmlns="http://www.w3.org/2000/svg" xmlns:xlink="http://www.w3.org/1999/xlink">
	<desc>
			Created with Pixso.
	</desc>
	<defs/>
	<path id="Vector" d="M18.33 15.04C17.64 14.74 16.83 15 16.41 15.64L14.06 19.35C13.98 19.48 13.76 19.48 13.72 19.31L12.74 16.07C12.7 15.94 12.74 15.77 12.83 15.68L13.55 14.96C13.72 14.83 13.59 14.53 13.38 14.53L10.82 14.53C10.61 14.53 10.48 14.79 10.65 14.96L11.38 15.68C11.46 15.77 11.5 15.94 11.46 16.07L10.48 19.31C10.44 19.48 10.23 19.48 10.14 19.35L7.8 15.64C7.37 15 6.6 14.74 5.88 15.04C1.53 16.83 0 18.41 0 23.01C0 23.57 0.42 24 0.98 24L23.23 24C23.78 24 24.21 23.57 24.21 23.01C24.21 18.41 18.33 15.04 18.33 15.04ZM12.1 13.12C17.81 13.12 20.8 0.12 12.1 0C3.41 0.17 6.39 13.12 12.1 13.12Z" fill="#444658" fill-opacity="1.000000" fill-rule="nonzero"/>
</svg>
