<svg width="24.000000" height="24.000000" viewBox="0 0 24 24" fill="none" xmlns="http://www.w3.org/2000/svg" xmlns:xlink="http://www.w3.org/1999/xlink">
	<desc>
			Created with Pixso.
	</desc>
	<defs/>
	<path id="Vector" d="M1.33 13.33L9.33 13.33C10.06 13.33 10.66 12.73 10.66 12L10.66 1.33C10.66 0.59 10.06 0 9.33 0L1.33 0C0.6 0 0 0.59 0 1.33L0 12C0 12.73 0.6 13.33 1.33 13.33ZM1.33 24L9.33 24C10.06 24 10.66 23.4 10.66 22.66L10.66 17.33C10.66 16.6 10.06 16 9.33 16L1.33 16C0.6 16 0 16.6 0 17.33L0 22.66C0 23.4 0.6 24 1.33 24ZM14.66 24L22.66 24C23.39 24 24 23.4 24 22.66L24 12C24 11.26 23.39 10.66 22.66 10.66L14.66 10.66C13.93 10.66 13.33 11.26 13.33 12L13.33 22.66C13.33 23.4 13.93 24 14.66 24ZM13.33 1.33L13.33 6.66C13.33 7.4 13.93 8 14.66 8L22.66 8C23.39 8 24 7.4 24 6.66L24 1.33C24 0.59 23.39 0 22.66 0L14.66 0C13.93 0 13.33 0.59 13.33 1.33Z" fill="#444658" fill-opacity="1.000000" fill-rule="nonzero"/>
</svg>
