<svg width="12.000000" height="8.000000" viewBox="0 0 12 8" fill="none" xmlns="http://www.w3.org/2000/svg" xmlns:xlink="http://www.w3.org/1999/xlink">
	<desc>
			Created with Pixso.
	</desc>
	<defs/>
	<path id="Vector" d="M5.33 8L6.66 8C7.03 8 7.33 7.7 7.33 7.33C7.33 6.96 7.03 6.66 6.66 6.66L5.33 6.66C4.96 6.66 4.66 6.96 4.66 7.33C4.66 7.7 4.96 8 5.33 8ZM0.66 0C0.29 0 0 0.29 0 0.66C0 1.03 0.29 1.33 0.66 1.33L11.33 1.33C11.7 1.33 12 1.03 12 0.66C12 0.29 11.7 0 11.33 0L0.66 0ZM2.66 4.66L9.33 4.66C9.7 4.66 10 4.36 10 4C10 3.63 9.7 3.33 9.33 3.33L2.66 3.33C2.29 3.33 2 3.63 2 4C2 4.36 2.29 4.66 2.66 4.66Z" fill="#808080" fill-opacity="1.000000" fill-rule="nonzero"/>
</svg>
